<?xml version="1.0" encoding="utf-8"?>
<!-- Generator: Adobe Illustrator 23.0.6, SVG Export Plug-In . SVG Version: 6.00 Build 0)  -->
<svg version="1.1" xmlns="http://www.w3.org/2000/svg" xmlns:xlink="http://www.w3.org/1999/xlink" x="0px" y="0px"
	 viewBox="0 0 257.2 45" style="enable-background:new 0 0 257.2 45;" xml:space="preserve">
<style type="text/css">
	.st0{fill:none;stroke:#D0B85F;stroke-width:2;stroke-miterlimit:10;}
	.st1{fill:#FFFFFF;}
</style>
<g id="Layer_3">
	<path class="st0" d="M29.3,5.9H3c-0.2,0-0.4,0.2-0.4,0.4v32.9c0,0.1,0.1,0.2,0.2,0.1l13.1-16.1l5.7,6.8L39.2,2.3"/>
	<path class="st0" d="M11,39.9h26.4c0.1,0,0.1-0.1,0.1-0.1V4.6"/>
	<g>
		<path class="st1" d="M54.8,14.4h9.1v1.8H57v5.6h6.4v1.8H57v7.7h-2.2V14.4z"/>
		<path class="st1" d="M72.2,31.3l-0.2-1.5H72c-0.7,1-2,1.8-3.7,1.8c-2.5,0-3.7-1.7-3.7-3.5c0-2.9,2.6-4.5,7.3-4.5v-0.3
			c0-1-0.3-2.8-2.8-2.8c-1.1,0-2.3,0.4-3.2,0.9L65.4,20c1-0.7,2.5-1.1,4-1.1c3.7,0,4.6,2.5,4.6,5v4.5c0,1.1,0.1,2.1,0.2,2.9H72.2z
			 M71.9,25.1c-2.4,0-5.1,0.4-5.1,2.7c0,1.4,1,2.1,2.1,2.1c1.6,0,2.6-1,2.9-2c0.1-0.2,0.1-0.5,0.1-0.7V25.1z"/>
		<path class="st1" d="M86,30.9c-0.6,0.3-1.9,0.7-3.5,0.7c-3.7,0-6-2.5-6-6.2c0-3.7,2.6-6.5,6.5-6.5c1.3,0,2.5,0.3,3.1,0.6l-0.5,1.7
			C85,21,84.2,20.7,83,20.7c-2.8,0-4.3,2.1-4.3,4.6c0,2.8,1.8,4.5,4.2,4.5c1.3,0,2.1-0.3,2.7-0.6L86,30.9z"/>
		<path class="st1" d="M89.3,25.7c0,3,2,4.2,4.2,4.2c1.6,0,2.5-0.3,3.4-0.6l0.4,1.6c-0.8,0.4-2.1,0.8-4,0.8c-3.7,0-6-2.5-6-6.1
			c0-3.7,2.2-6.6,5.7-6.6c4,0,5,3.5,5,5.7c0,0.5,0,0.8-0.1,1H89.3z M95.8,24.1c0-1.4-0.6-3.6-3.1-3.6c-2.2,0-3.2,2.1-3.4,3.6H95.8z"
			/>
		<path class="st1" d="M100.3,31.3c0-0.8,0.1-2.1,0.1-3.1V13.5h2.2v7.6h0c0.8-1.4,2.2-2.2,4.1-2.2c3,0,5.1,2.5,5.1,6.2
			c0,4.3-2.7,6.5-5.4,6.5c-1.8,0-3.2-0.7-4.1-2.3h-0.1l-0.1,2H100.3z M102.6,26.5c0,0.3,0,0.6,0.1,0.8c0.4,1.5,1.7,2.6,3.3,2.6
			c2.3,0,3.7-1.9,3.7-4.7c0-2.4-1.3-4.5-3.6-4.5c-1.5,0-2.9,1-3.4,2.7c0,0.3-0.1,0.6-0.1,0.9V26.5z"/>
		<path class="st1" d="M125.3,25.2c0,4.5-3.1,6.5-6,6.5c-3.3,0-5.8-2.4-5.8-6.3c0-4.1,2.7-6.5,6-6.5C123,18.9,125.3,21.4,125.3,25.2
			z M115.7,25.3c0,2.7,1.5,4.7,3.7,4.7c2.1,0,3.7-2,3.7-4.7c0-2.1-1-4.7-3.6-4.7S115.7,23,115.7,25.3z"/>
		<path class="st1" d="M138.8,25.2c0,4.5-3.1,6.5-6,6.5c-3.3,0-5.8-2.4-5.8-6.3c0-4.1,2.7-6.5,6-6.5
			C136.5,18.9,138.8,21.4,138.8,25.2z M129.2,25.3c0,2.7,1.5,4.7,3.7,4.7c2.1,0,3.7-2,3.7-4.7c0-2.1-1-4.7-3.6-4.7
			S129.2,23,129.2,25.3z"/>
		<path class="st1" d="M143.5,24.8L143.5,24.8c0.4-0.4,0.8-1,1.1-1.4l3.6-4.2h2.7l-4.7,5l5.3,7.2h-2.7l-4.2-5.8l-1.1,1.3v4.6h-2.2
			V13.5h2.2V24.8z"/>
		<path class="st1" d="M160.6,26l-1.8,5.3h-2.3l5.7-16.9h2.6l5.8,16.9h-2.3l-1.8-5.3H160.6z M166.1,24.3l-1.7-4.9
			c-0.4-1.1-0.6-2.1-0.9-3.1h0c-0.3,1-0.5,2-0.9,3.1l-1.7,4.9H166.1z"/>
		<path class="st1" d="M172.8,22.5c0-1.3,0-2.3-0.1-3.3h2l0.1,2h0c0.6-1.2,2-2.3,4-2.3c1.7,0,4.3,1,4.3,5.2v7.3h-2.2v-7
			c0-2-0.7-3.6-2.8-3.6c-1.5,0-2.6,1-3,2.3c-0.1,0.3-0.2,0.7-0.2,1v7.3h-2.2V22.5z"/>
		<path class="st1" d="M193.1,31.3l-0.2-1.5h-0.1c-0.7,1-2,1.8-3.7,1.8c-2.5,0-3.7-1.7-3.7-3.5c0-2.9,2.6-4.5,7.3-4.5v-0.3
			c0-1-0.3-2.8-2.8-2.8c-1.1,0-2.3,0.4-3.2,0.9l-0.5-1.5c1-0.7,2.5-1.1,4-1.1c3.7,0,4.6,2.5,4.6,5v4.5c0,1.1,0.1,2.1,0.2,2.9H193.1z
			 M192.8,25.1c-2.4,0-5.1,0.4-5.1,2.7c0,1.4,1,2.1,2.1,2.1c1.6,0,2.6-1,2.9-2c0.1-0.2,0.1-0.5,0.1-0.7V25.1z"/>
		<path class="st1" d="M198.2,13.5h2.2v17.8h-2.2V13.5z"/>
		<path class="st1" d="M204.6,19.2l2.7,7.2c0.3,0.8,0.6,1.8,0.8,2.5h0.1c0.2-0.7,0.5-1.7,0.8-2.5l2.4-7.1h2.3l-3.3,8.7
			c-1.6,4.2-2.7,6.3-4.2,7.6c-1.1,1-2.2,1.3-2.7,1.4l-0.6-1.9c0.6-0.2,1.3-0.5,1.9-1.1c0.6-0.5,1.4-1.3,1.9-2.5
			c0.1-0.2,0.2-0.4,0.2-0.5c0-0.1,0-0.3-0.2-0.6l-4.5-11.2H204.6z"/>
		<path class="st1" d="M218,15.7v3.5h3.2v1.7H218v6.6c0,1.5,0.4,2.4,1.7,2.4c0.6,0,1-0.1,1.3-0.2l0.1,1.7c-0.4,0.2-1.1,0.3-2,0.3
			c-1,0-1.9-0.3-2.4-0.9c-0.6-0.7-0.9-1.7-0.9-3.2v-6.6H214v-1.7h1.9v-2.9L218,15.7z"/>
		<path class="st1" d="M225.8,15.8c0,0.8-0.5,1.4-1.4,1.4c-0.8,0-1.3-0.6-1.3-1.4c0-0.8,0.6-1.4,1.4-1.4
			C225.3,14.4,225.8,15,225.8,15.8z M223.3,31.3V19.2h2.2v12.1H223.3z"/>
		<path class="st1" d="M237.6,30.9c-0.6,0.3-1.9,0.7-3.5,0.7c-3.7,0-6-2.5-6-6.2c0-3.7,2.6-6.5,6.5-6.5c1.3,0,2.5,0.3,3.1,0.6
			l-0.5,1.7c-0.5-0.3-1.4-0.6-2.6-0.6c-2.8,0-4.3,2.1-4.3,4.6c0,2.8,1.8,4.5,4.2,4.5c1.3,0,2.1-0.3,2.7-0.6L237.6,30.9z"/>
		<path class="st1" d="M239.6,29.1c0.7,0.4,1.8,0.9,2.9,0.9c1.6,0,2.4-0.8,2.4-1.8c0-1.1-0.6-1.6-2.3-2.2c-2.2-0.8-3.2-2-3.2-3.4
			c0-2,1.6-3.6,4.2-3.6c1.2,0,2.3,0.4,3,0.8l-0.6,1.6c-0.5-0.3-1.4-0.7-2.5-0.7c-1.3,0-2,0.8-2,1.7c0,1,0.7,1.5,2.3,2.1
			c2.1,0.8,3.2,1.9,3.2,3.7c0,2.1-1.7,3.6-4.5,3.6c-1.3,0-2.6-0.3-3.4-0.8L239.6,29.1z"/>
	</g>
</g>
</svg>
