<?xml version="1.0" encoding="utf-8"?>
<!-- Generator: Adobe Illustrator 23.0.6, SVG Export Plug-In . SVG Version: 6.00 Build 0)  -->
<svg version="1.1" xmlns="http://www.w3.org/2000/svg" xmlns:xlink="http://www.w3.org/1999/xlink" x="0px" y="0px"
	 viewBox="0 0 257.2 45" style="enable-background:new 0 0 257.2 45;" xml:space="preserve">
<style type="text/css">
	.st0{fill:none;stroke:#D0B85F;stroke-width:2;stroke-miterlimit:10;}
	.st1{fill:#FFFFFF;}
</style>
<g id="Layer_2">
	<path class="st0" d="M8,35.4l13.9,7.8c0.2,0.1,0.5,0.1,0.7,0l14.3-7.8c0.3-0.2,0.4-0.5,0.4-0.8l-3.9-23.9c-0.1-0.6-0.8-0.8-1.2-0.4
		L7.9,34.6C7.7,34.9,7.7,35.2,8,35.4z"/>
	<path class="st0" d="M7.8,35.1l4.8-32.7c0.1-0.7,1.1-0.9,1.4-0.3l5.4,10.1"/>
	<path class="st0" d="M7.9,34.7L21.8,7.9c0.2-0.4,0.8-0.4,1.1,0l4.1,7.7"/>
	<g>
		<path class="st1" d="M54.8,14.5h9.1v1.8H57v5.6h6.4v1.8H57v7.7h-2.2V14.5z"/>
		<path class="st1" d="M68.4,15.8c0,0.8-0.5,1.4-1.4,1.4c-0.8,0-1.3-0.6-1.3-1.4c0-0.8,0.6-1.4,1.4-1.4
			C67.9,14.5,68.4,15.1,68.4,15.8z M66,31.4V19.2h2.2v12.1H66z"/>
		<path class="st1" d="M71.5,23c0-1.4,0-2.7-0.1-3.8h1.9l0.1,2.4h0.1c0.6-1.6,1.9-2.7,3.4-2.7c0.3,0,0.4,0,0.6,0.1v2.1
			c-0.2-0.1-0.5-0.1-0.8-0.1c-1.6,0-2.7,1.2-3,2.8c0,0.3-0.1,0.7-0.1,1v6.5h-2.2V23z"/>
		<path class="st1" d="M80.4,25.7c0,3,2,4.2,4.2,4.2c1.6,0,2.5-0.3,3.4-0.6l0.4,1.6c-0.8,0.4-2.1,0.8-4,0.8c-3.7,0-6-2.5-6-6.1
			c0-3.7,2.2-6.6,5.7-6.6c4,0,5,3.5,5,5.7c0,0.5,0,0.8-0.1,1H80.4z M86.9,24.1c0-1.4-0.6-3.6-3.1-3.6c-2.2,0-3.2,2.1-3.4,3.6H86.9z"
			/>
		<path class="st1" d="M91.4,31.4c0-0.8,0.1-2.1,0.1-3.1V13.6h2.2v7.6h0c0.8-1.4,2.2-2.2,4.1-2.2c3,0,5.1,2.5,5.1,6.2
			c0,4.3-2.7,6.5-5.4,6.5c-1.8,0-3.2-0.7-4.1-2.3h-0.1l-0.1,2H91.4z M93.7,26.5c0,0.3,0,0.6,0.1,0.8c0.4,1.5,1.7,2.6,3.3,2.6
			c2.3,0,3.7-1.9,3.7-4.7c0-2.4-1.3-4.5-3.6-4.5c-1.5,0-2.9,1-3.4,2.7c0,0.3-0.1,0.6-0.1,0.9V26.5z"/>
		<path class="st1" d="M112.2,31.4l-0.2-1.5h-0.1c-0.7,1-2,1.8-3.7,1.8c-2.5,0-3.7-1.7-3.7-3.5c0-2.9,2.6-4.5,7.3-4.5v-0.3
			c0-1-0.3-2.8-2.8-2.8c-1.1,0-2.3,0.4-3.2,0.9l-0.5-1.5c1-0.7,2.5-1.1,4-1.1c3.7,0,4.6,2.5,4.6,5v4.5c0,1.1,0.1,2.1,0.2,2.9H112.2z
			 M111.9,25.2c-2.4,0-5.1,0.4-5.1,2.7c0,1.4,1,2.1,2.1,2.1c1.6,0,2.6-1,2.9-2c0.1-0.2,0.1-0.5,0.1-0.7V25.2z"/>
		<path class="st1" d="M116.9,29.1c0.7,0.4,1.8,0.9,2.9,0.9c1.6,0,2.4-0.8,2.4-1.8c0-1.1-0.6-1.6-2.3-2.2c-2.2-0.8-3.2-2-3.2-3.4
			c0-2,1.6-3.6,4.2-3.6c1.2,0,2.3,0.4,3,0.8l-0.6,1.6c-0.5-0.3-1.4-0.7-2.5-0.7c-1.3,0-2,0.8-2,1.7c0,1,0.7,1.5,2.3,2.1
			c2.1,0.8,3.2,1.9,3.2,3.7c0,2.1-1.7,3.6-4.5,3.6c-1.3,0-2.6-0.3-3.4-0.8L116.9,29.1z"/>
		<path class="st1" d="M128.1,25.7c0,3,2,4.2,4.2,4.2c1.6,0,2.5-0.3,3.4-0.6l0.4,1.6c-0.8,0.4-2.1,0.8-4,0.8c-3.7,0-6-2.5-6-6.1
			c0-3.7,2.2-6.6,5.7-6.6c4,0,5,3.5,5,5.7c0,0.5,0,0.8-0.1,1H128.1z M134.6,24.1c0-1.4-0.6-3.6-3.1-3.6c-2.2,0-3.2,2.1-3.4,3.6
			H134.6z"/>
		<path class="st1" d="M147,26.1l-1.8,5.3H143l5.7-16.9h2.6l5.8,16.9h-2.3l-1.8-5.3H147z M152.5,24.4l-1.7-4.9
			c-0.4-1.1-0.6-2.1-0.9-3.1h0c-0.3,1-0.5,2-0.9,3.1l-1.7,4.9H152.5z"/>
		<path class="st1" d="M159.2,22.5c0-1.3,0-2.3-0.1-3.3h2l0.1,2h0c0.6-1.2,2-2.3,4-2.3c1.7,0,4.3,1,4.3,5.2v7.3h-2.2v-7
			c0-2-0.7-3.6-2.8-3.6c-1.5,0-2.6,1-3,2.3c-0.1,0.3-0.2,0.7-0.2,1v7.3h-2.2V22.5z"/>
		<path class="st1" d="M179.5,31.4l-0.2-1.5h-0.1c-0.7,1-2,1.8-3.7,1.8c-2.5,0-3.7-1.7-3.7-3.5c0-2.9,2.6-4.5,7.3-4.5v-0.3
			c0-1-0.3-2.8-2.8-2.8c-1.1,0-2.3,0.4-3.2,0.9l-0.5-1.5c1-0.7,2.5-1.1,4-1.1c3.7,0,4.6,2.5,4.6,5v4.5c0,1.1,0.1,2.1,0.2,2.9H179.5z
			 M179.2,25.2c-2.4,0-5.1,0.4-5.1,2.7c0,1.4,1,2.1,2.1,2.1c1.6,0,2.6-1,2.9-2c0.1-0.2,0.1-0.5,0.1-0.7V25.2z"/>
		<path class="st1" d="M184.6,13.6h2.2v17.8h-2.2V13.6z"/>
		<path class="st1" d="M191,19.2l2.7,7.2c0.3,0.8,0.6,1.8,0.8,2.5h0.1c0.2-0.7,0.5-1.7,0.8-2.5l2.4-7.1h2.3l-3.3,8.7
			c-1.6,4.2-2.7,6.3-4.2,7.6c-1.1,1-2.2,1.3-2.7,1.4l-0.6-1.9c0.6-0.2,1.3-0.5,1.9-1.1c0.6-0.5,1.4-1.3,1.9-2.5
			c0.1-0.2,0.2-0.4,0.2-0.5c0-0.1,0-0.3-0.2-0.6l-4.5-11.2H191z"/>
		<path class="st1" d="M204.4,15.8v3.5h3.2v1.7h-3.2v6.6c0,1.5,0.4,2.4,1.7,2.4c0.6,0,1-0.1,1.3-0.2l0.1,1.7c-0.4,0.2-1.1,0.3-2,0.3
			c-1,0-1.9-0.3-2.4-0.9c-0.6-0.7-0.9-1.7-0.9-3.2v-6.6h-1.9v-1.7h1.9v-2.9L204.4,15.8z"/>
		<path class="st1" d="M212.2,15.8c0,0.8-0.5,1.4-1.4,1.4c-0.8,0-1.3-0.6-1.3-1.4c0-0.8,0.6-1.4,1.4-1.4
			C211.7,14.5,212.2,15.1,212.2,15.8z M209.7,31.4V19.2h2.2v12.1H209.7z"/>
		<path class="st1" d="M224,30.9c-0.6,0.3-1.9,0.7-3.5,0.7c-3.7,0-6-2.5-6-6.2c0-3.7,2.6-6.5,6.5-6.5c1.3,0,2.5,0.3,3.1,0.6
			l-0.5,1.7c-0.5-0.3-1.4-0.6-2.6-0.6c-2.8,0-4.3,2.1-4.3,4.6c0,2.8,1.8,4.5,4.2,4.5c1.3,0,2.1-0.3,2.7-0.6L224,30.9z"/>
		<path class="st1" d="M225.9,29.1c0.7,0.4,1.8,0.9,2.9,0.9c1.6,0,2.4-0.8,2.4-1.8c0-1.1-0.6-1.6-2.3-2.2c-2.2-0.8-3.2-2-3.2-3.4
			c0-2,1.6-3.6,4.2-3.6c1.2,0,2.3,0.4,3,0.8l-0.6,1.6c-0.5-0.3-1.4-0.7-2.5-0.7c-1.3,0-2,0.8-2,1.7c0,1,0.7,1.5,2.3,2.1
			c2.1,0.8,3.2,1.9,3.2,3.7c0,2.1-1.7,3.6-4.5,3.6c-1.3,0-2.6-0.3-3.4-0.8L225.9,29.1z"/>
	</g>
</g>
</svg>
