<?xml version="1.0" encoding="utf-8"?>
<!-- Generator: Adobe Illustrator 23.0.6, SVG Export Plug-In . SVG Version: 6.00 Build 0)  -->
<svg version="1.1" id="Layer_1" xmlns="http://www.w3.org/2000/svg" xmlns:xlink="http://www.w3.org/1999/xlink" x="0px" y="0px"
	 viewBox="0 0 26.1 43.6" style="enable-background:new 0 0 26.1 43.6;" xml:space="preserve">
<path d="M19.9,24.2l-18-18c-1.3-1.3-1.3-3.4,0-4.7l0,0c1.3-1.3,3.4-1.3,4.7,0l18,18c1.3,1.3,1.3,3.4,0,4.7l0,0
	C23.3,25.5,21.2,25.5,19.9,24.2z"/>
<path d="M6.7,42.2l18-18c1.3-1.3,1.3-3.4,0-4.7l0,0c-1.3-1.3-3.4-1.3-4.7,0l-18,18c-1.3,1.3-1.3,3.4,0,4.7l0,0
	C3.3,43.5,5.4,43.5,6.7,42.2z"/>
</svg>
