<?xml version="1.0" encoding="utf-8"?>
<!-- Generator: Adobe Illustrator 23.0.6, SVG Export Plug-In . SVG Version: 6.00 Build 0)  -->
<svg version="1.1" id="Layer_1" xmlns="http://www.w3.org/2000/svg" xmlns:xlink="http://www.w3.org/1999/xlink" x="0px" y="0px"
	 viewBox="0 0 60 44" style="enable-background:new 0 0 60 44;" xml:space="preserve">
<g>
	<path d="M3.5,25h53c1.4,0,2.5-1.1,2.5-2.5v0c0-1.4-1.1-2.5-2.5-2.5h-53C2.1,20,1,21.1,1,22.5v0C1,23.9,2.1,25,3.5,25z"/>
</g>
<g>
	<path d="M3.5,43h53c1.4,0,2.5-1.1,2.5-2.5v0c0-1.4-1.1-2.5-2.5-2.5h-53C2.1,38,1,39.1,1,40.5v0C1,41.9,2.1,43,3.5,43z"/>
</g>
<g>
	<path d="M3.5,7h53C57.9,7,59,5.9,59,4.5v0C59,3.1,57.9,2,56.5,2h-53C2.1,2,1,3.1,1,4.5v0C1,5.9,2.1,7,3.5,7z"/>
</g>
</svg>
