<?xml version="1.0" encoding="utf-8"?>
<!-- Generator: Adobe Illustrator 23.0.6, SVG Export Plug-In . SVG Version: 6.00 Build 0)  -->
<svg version="1.1" id="Layer_1" xmlns="http://www.w3.org/2000/svg" xmlns:xlink="http://www.w3.org/1999/xlink" x="0px" y="0px"
	 viewBox="0 0 94 94" style="enable-background:new 0 0 94 94;" xml:space="preserve">
<style type="text/css">
	.st0{fill:#d0b85e;}
</style>
<g>
	<path class="st0" d="M65.6,19.1c2.2-2.3,4.3-4.6,6.5-6.9c1.5-1.6,3.1-3.2,4.7-4.8c0.9-0.9,1.9-1,2.8,0c3.3,3.3,6.6,6.6,9.9,9.9
		c1,1,0.8,2-0.4,3.3C82.7,27,76.3,33.3,69.9,39.7c-1.3,1.3-2.6,2.6-3.9,3.9c-0.7,0.6-0.9,1.3-0.9,2.3c0,13,0,26,0,39
		c0,4.1-2.1,6.2-6.1,6.2c-16,0-32,0-47.9,0c-0.4,0-0.9,0-1.3,0c-3.4-0.1-5.6-2.2-5.6-5.6c0-14,0-27.9,0-41.9c0-7.3,0-14.6,0-21.9
		c0-0.9,0.2-1.5,0.9-2.2c4.6-4.5,9.2-9.1,13.7-13.7c0.6-0.6,1.2-0.9,2-0.8c12.8,0,25.7,0,38.5,0c3.8,0,5.9,2.2,5.9,5.9
		c0,2.6,0,5.2,0,7.8C65.3,18.8,65.4,19,65.6,19.1z M28.6,60.6c-0.4,0-0.7-0.1-0.9-0.1c-4.1,0-8.2,0-12.3,0c-1.6,0-2.5-0.8-2.3-2.1
		c0.2-1.2,1.1-1.6,2.2-1.6c4.4,0,8.9,0,13.3,0c1.2,0,2.2-0.9,1.9-2c-0.3-0.9,0.2-1.2,0.6-1.6c3.8-3.8,7.6-7.6,11.5-11.5
		c0.2-0.2,0.7-0.4,0.6-0.9c-1.5,0-3,0-4.5,0c-1.6,0-2.2-0.6-2.3-1.8c0-1.2,0.7-1.8,2.2-1.8c2.5,0,5,0,7.5,0c0.4,0,0.9,0.1,1.1-0.1
		c1.7-1.6,3.3-3.3,5.2-5.1c-0.9,0-1.4,0-1.8,0c-4,0-8,0-12,0c-1.7,0-2.5-0.9-2.2-2.3c0.3-1.2,1.2-1.4,2.2-1.4c5.4,0,10.8,0,16.2,0
		c0.8,0,1.4-0.2,2-0.8c1.2-1.4,2.5-2.7,3.8-4c0.5-0.5,0.7-0.9,0.7-1.6c0-3.7,0-7.3,0-11c0-1.8-0.5-2.2-2.2-2.2c-12,0-24,0-36.1,0
		c-0.9,0-1.1,0.2-1.1,1.1c0,3.6,0,7.2,0,10.9c0,1.9-0.5,2.4-2.4,2.4c-3.5,0-7,0.1-10.4,0c-1.1,0-1.5,0.2-1.5,1.4
		c0,20.1,0,40.2,0,60.3c0,2.5,0.3,2.8,2.7,2.8c16.1,0,32.3,0,48.4,0c2.2,0,2.6-0.4,2.6-2.6c0-11.7,0-23.4,0-35.1
		c0-0.4,0.2-0.8-0.2-1.2C56.1,53.5,51.1,58.6,46,63.6c-1.4,1.4-2.5,2.8-4.8,3.2c-2.9,0.4-5.6,1.7-8.4,2.7c-1.7,0.6-3.4,1.6-5.2,1.7
		c-4.4,0.3-8.8,0.1-13.2,0.1c-1,0-1.6-1-1.4-2c0.2-1.3,1.2-1.6,2.4-1.6c3.3,0,6.6,0,9.8,0c0.6,0,1.1,0,1.3-0.8
		C27.2,64.8,27.9,62.8,28.6,60.6z M70.4,18.6c-0.2,0.3-0.3,0.7-0.5,0.9C58.6,30.8,47.4,42.2,36.1,53.5c-0.7,0.7-0.6,1,0,1.6
		c1.9,1.9,3.9,3.8,5.7,5.7c0.8,0.8,1.2,0.8,2,0c6.4-6.5,12.9-13,19.4-19.5c4.7-4.8,9.4-9.5,14.2-14.3c0.4-0.4,0.9-0.7,0.2-1.3
		c-2.2-2.1-4.2-4.2-6.4-6.3C71,19.2,70.9,19,70.4,18.6z M85.9,18.9c-0.3-0.4-0.4-0.6-0.6-0.7c-2.1-2.2-4.3-4.3-6.4-6.5
		c-0.5-0.5-0.7-0.3-1.1,0.1c-1.2,1.3-2.5,2.6-3.8,3.8c-0.5,0.5-0.5,0.8,0,1.3c2.1,2.1,4.2,4.1,6.2,6.2c0.5,0.5,0.8,0.6,1.3,0
		c1.2-1.3,2.5-2.5,3.8-3.8C85.4,19.2,85.6,19.1,85.9,18.9z M39.1,63.7c-1.9-2-3.8-3.9-5.7-5.9c-0.9,2.8-1.9,5.7-2.9,8.8
		C33.7,65.5,36.5,64.6,39.1,63.7z M18.5,11.8c-2.4,2.5-5,5.1-7.4,7.5c1.9,0,4.2,0,6.4,0c0.8,0,1-0.2,1-1
		C18.4,16,18.5,13.8,18.5,11.8z"/>
	<path class="st0" d="M31,39c0,2.8,0,5.5,0,8.3c0,2-0.5,2.6-2.5,2.6c-2.9,0-5.8-0.1-8.7-0.2c-1.5,0-3,0.1-4.5,0.1
		c-1.5,0-2.2-0.6-2.2-2c0-5.8,0-11.6,0-17.4c0-1.5,0.6-2.1,2.2-2.1c4.6,0,9.2,0,13.8,0c1.4,0,2,0.6,2,2.1C31,33.2,31,36.1,31,39
		C31,39,31,39,31,39z M27.5,39.1c0-2.1,0-4.1,0-6.2c0-0.7-0.1-1.1-0.9-1c-3,0-6,0-9,0c-0.7,0-0.9,0.2-0.9,0.9c0,4.1,0,8.3,0,12.4
		c0,0.8,0.3,1,1,0.9c2.9,0,5.9,0,8.8,0c0.8,0,1-0.2,1-1C27.4,43.2,27.5,41.1,27.5,39.1z"/>
	<path class="st0" d="M34.9,78.5c6.3,0,12.6,0,19,0c0.7,0,1.4-0.1,1.8,0.6c0.4,0.6,0.5,1.2,0.2,1.9C55.5,81.8,54.8,82,54,82
		c-2.6,0-5.1,0-7.7,0c-10.3,0-20.5,0-30.8,0c-1.2,0-2.1-0.2-2.4-1.5c-0.2-1.1,0.7-2,2.2-2C21.9,78.5,28.4,78.5,34.9,78.5z"/>
	<path class="st0" d="M41.7,17.5c-4,0-8,0-12,0c-1,0-1.8-0.3-2.2-1.3c-0.4-1.3,0.4-2.3,2.1-2.4c4.8,0,9.6,0,14.5,0c3.3,0,6.6,0,10,0
		c1.5,0,2.2,0.7,2.2,1.9c-0.1,1.4-1,1.7-2.2,1.7C49.8,17.5,45.8,17.5,41.7,17.5z"/>
	<path class="st0" d="M43.5,51.8c0-0.8,0.4-1.3,0.9-1.8c7.4-7.4,14.7-14.7,22.1-22.1c1-1,2.1-1.1,2.9-0.3c0.8,0.8,0.7,1.8-0.3,2.9
		C61.7,37.8,54.3,45.3,47,52.7c-0.7,0.7-1.4,1.1-2.3,0.7C43.9,53.1,43.6,52.4,43.5,51.8z"/>
</g>
</svg>
