<?xml version="1.0" encoding="utf-8"?>
<!-- Generator: Adobe Illustrator 23.0.6, SVG Export Plug-In . SVG Version: 6.00 Build 0)  -->
<svg version="1.1" id="Layer_1" xmlns="http://www.w3.org/2000/svg" xmlns:xlink="http://www.w3.org/1999/xlink" x="0px" y="0px"
	 viewBox="0 0 76 78" style="enable-background:new 0 0 76 78;" xml:space="preserve">
<g>
	<path d="M48.3,10.8c-0.7,1.1-1.4,2.1-2,3.1c-1.1,1.6-2.1,3.2-3.2,4.8c-0.2,0.3-0.4,0.5-0.9,0.5c-9.4,0-18.8,0-28.2,0
		c-1.8,0-3.2,0.7-4,2.3c-0.3,0.6-0.4,1.3-0.4,1.9c0,13.8,0,27.5,0,41.3c0,2.5,1.8,4.3,4.4,4.3c5.6,0,11.1,0,16.7,0
		c8.1,0,16.2,0,24.2,0c1.8,0,3.2-0.7,4.1-2.4c0.4-0.7,0.4-1.4,0.4-2.2c0-5.9,0-11.8,0-17.6c0-0.3,0.1-0.6,0.3-0.9
		c2.6-3.8,5.1-7.7,7.7-11.5c0.1-0.1,0.2-0.2,0.3-0.4c0.1,0.2,0.1,0.4,0.1,0.5c0,10,0,19.9,0,29.9c0,4.4-1.8,8-5.4,10.6
		c-2.1,1.5-4.4,2.2-7,2.2c-14.1,0-28.2,0-42.2,0c-3.8,0-6.9-1.8-9.3-4.7c-1.8-2.3-2.7-5-2.7-7.9c0-13.7,0-27.4,0-41.1
		c0-4.4,1.8-7.9,5.3-10.5c1.8-1.3,3.9-2.1,6.2-2.2c1-0.1,2-0.1,3-0.1c10.7,0,21.4,0,32.1,0C48,10.8,48.1,10.8,48.3,10.8z"/>
	<path d="M38,59.3c-2.2,0-3.7-0.7-4.9-1.9c-5.2-5.2-10.3-10.3-15.5-15.5c-1.9-1.9-2.4-4.7-1.3-7c1.2-2.5,3.5-3.9,6.3-3.6
		c1.4,0.1,2.7,0.7,3.8,1.7c3.3,3.3,6.7,6.6,10,10c0.3,0.4,0.5,0.3,0.7-0.1c8.7-13,17.5-26,26.2-39c1.8-2.7,5-3.6,7.5-2.7
		c3.7,1.3,5.3,5.8,3.2,9.1c-3,4.6-6.1,9.1-9.1,13.6c-7.3,10.8-14.6,21.6-21.8,32.4C41.6,58.3,39.8,59.3,38,59.3z"/>
</g>
</svg>
