<?xml version="1.0" encoding="utf-8"?>
<!-- Generator: Adobe Illustrator 23.0.6, SVG Export Plug-In . SVG Version: 6.00 Build 0)  -->
<svg version="1.1" xmlns="http://www.w3.org/2000/svg" xmlns:xlink="http://www.w3.org/1999/xlink" x="0px" y="0px"
	 viewBox="0 0 224 225" style="enable-background:new 0 0 224 225;" xml:space="preserve">
<style type="text/css">
	.st0{fill:#8dd430;}
</style>
<g id="Layer_2">
	<path class="st0" d="M106.9,219.9C49.9,217.2,4.4,169.9,4,112.8C3.6,52.9,52.2,4,112,4c6.6,0,13.2,0.6,19.7,1.8c4,0.7,6.5,4.7,5.5,8.6v0
		c-0.9,3.6-4.4,5.8-8,5.1c-5.6-1-11.4-1.6-17.2-1.6c-52.8,0-95.5,43.7-94,96.9c1.4,47.6,38.7,86.9,86.2,90.8
		c50.1,4.1,93.6-31.7,100.7-79.6c0.1-0.5,0.1-1,0.2-1.5c0.5-3.6,3.7-6.3,7.4-6h0c4,0.3,7,3.9,6.5,7.9c0,0.3-0.1,0.5-0.1,0.8
		C211.3,181.5,163.2,222.5,106.9,219.9z"/>
	<path class="st0" d="M94.8,146.2L60,111.5c-2.3-2.3-2.3-6.1,0-8.5l0,0c2.3-2.3,6.1-2.3,8.5,0l26.3,26.3c2.3,2.3,6.1,2.3,8.5,0L192.5,41
		c2.4-2.3,6.2-2.3,8.5,0l0,0c2.3,2.4,2.3,6.2,0,8.5l-97.7,96.8C100.9,148.6,97.1,148.6,94.8,146.2z"/>
</g>
</svg>
