<?xml version="1.0" encoding="utf-8"?>
<!-- Generator: Adobe Illustrator 23.0.6, SVG Export Plug-In . SVG Version: 6.00 Build 0)  -->
<svg version="1.1" xmlns="http://www.w3.org/2000/svg" xmlns:xlink="http://www.w3.org/1999/xlink" x="0px" y="0px"
	 viewBox="0 0 224 225" style="enable-background:new 0 0 224 225;" xml:space="preserve">
<style type="text/css">
	.st0{fill:#d49230;}
</style>
<g id="Layer_3">
	<path class="st0" d="M107.9,213.8c-0.3,3.4-3.5,5.9-6.9,5.3C47,210.7,4,163.9,4,112C4,52.4,52.4,4,112,4c29.2,0,57.1,11.8,77.4,32.6
		c2.4,2.5,2.2,6.5-0.4,8.7l-1.5,1.3c-2.4,2.1-6,1.9-8.2-0.3C161.6,28.3,137.4,18,112,18c-51.8,0-94,42.2-94,94
		c0,45.1,37.7,85.9,85.1,93.3c3.1,0.5,5.3,3.4,5,6.5L107.9,213.8z"/>
	<path class="st0" d="M120.9,213.4l-0.2-2c-0.3-3.1,1.9-6,5.1-6.4c3.6-0.5,7.2-1.3,10.7-2.2c3.1-0.8,6.2,0.9,7.2,3.9l0.6,1.9
		c1.1,3.3-0.8,6.8-4.2,7.7c-4.1,1.1-8.2,2-12.4,2.6C124.3,219.4,121.2,216.9,120.9,213.4z"/>
	<path class="st0" d="M154.2,204.7l-0.8-1.8c-1.3-2.9-0.2-6.3,2.6-7.8c3.3-1.8,6.5-3.7,9.6-5.9c2.6-1.8,6.1-1.3,8.1,1.2l1.2,1.6
		c2.1,2.7,1.6,6.7-1.3,8.6c-3.6,2.5-7.3,4.8-11.2,6.8C159.4,209.1,155.6,207.8,154.2,204.7z"/>
	<path class="st0" d="M183.1,184.9l-1.4-1.4c-2.2-2.3-2.3-5.9-0.2-8.2c2.5-2.8,4.9-5.7,7.1-8.7c1.8-2.6,5.4-3.2,8-1.6l1.7,1.1
		c2.9,1.8,3.7,5.8,1.7,8.6c-2.5,3.5-5.3,6.9-8.2,10.2C189.5,187.3,185.5,187.4,183.1,184.9z"/>
	<path class="st0" d="M203.5,156.8l-1.8-0.9c-2.8-1.4-4.1-4.7-2.9-7.7c1.5-3.6,2.8-7.2,3.8-11c0.8-3,3.9-4.9,7-4.2l2,0.4
		c3.4,0.7,5.5,4.2,4.5,7.5c-1.2,4.3-2.7,8.6-4.4,12.7C210.3,156.9,206.6,158.3,203.5,156.8z"/>
	<path class="st0" d="M213.3,122.8l-2-0.2c-3.1-0.3-5.5-3-5.4-6.2c0.1-1.5,0.1-2.9,0.1-4.4c0-2.2-0.1-4.4-0.2-6.6c-0.2-3.2,2.1-5.9,5.2-6.3
		l2-0.3c3.4-0.4,6.5,2.1,6.8,5.6c0.2,2.5,0.3,5.1,0.3,7.6c0,1.7,0,3.4-0.1,5.1C219.7,120.6,216.7,123.2,213.3,122.8z"/>
	<path class="st0" d="M202,84.7c-1.1-3.6-2.4-7.2-3.9-10.6c-1.3-2.9-0.1-6.3,2.8-7.7l1.8-0.9c3.1-1.6,6.8-0.2,8.2,2.9c1.8,4,3.3,8.1,4.6,12.3
		c1,3.3-1,6.8-4.4,7.6l-1.9,0.5C206,89.5,202.9,87.7,202,84.7z"/>
	<g id="Layer_4">
		<path class="st0" d="M161.9,156.6l-60.7-31.3c-2-1-3.2-3-3.3-5.3l-0.9-68c0-3.3,2.6-6,5.9-6.1h0c3.3,0,6,2.6,6.1,5.9l0.8,60.8
			c0,2.2,1.3,4.2,3.3,5.3l54.3,28c2.9,1.5,4.1,5.1,2.6,8.1l0,0C168.5,156.9,164.9,158.1,161.9,156.6z"/>
	</g>
	<g id="Layer_5">
		<path class="st0" d="M201.2,33.2l-2.8,23c-0.1,1.1-1.1,1.8-2.1,1.7l-23-2.8c-1.7-0.2-2.3-2.4-1-3.4l25.8-20.1
			C199.4,30.4,201.4,31.5,201.2,33.2z"/>
	</g>
</g>
</svg>
