<?xml version="1.0" encoding="utf-8"?>
<!-- Generator: Adobe Illustrator 23.0.6, SVG Export Plug-In . SVG Version: 6.00 Build 0)  -->
<svg version="1.1" id="Layer_1" xmlns="http://www.w3.org/2000/svg" xmlns:xlink="http://www.w3.org/1999/xlink" x="0px" y="0px"
	 viewBox="0 0 47 45" style="enable-background:new 0 0 47 45;" xml:space="preserve">
<g>
	<path d="M6,43L43.5,5.5c1-1,1-2.6,0-3.5l0,0c-1-1-2.6-1-3.5,0L2.5,39.5c-1,1-1,2.6,0,3.5l0,0C3.5,44,5.1,44,6,43z"/>
</g>
<g>
	<path d="M2.5,5.5L40,43c1,1,2.6,1,3.5,0l0,0c1-1,1-2.6,0-3.5L6,2c-1-1-2.6-1-3.5,0l0,0C1.5,3,1.5,4.6,2.5,5.5z"/>
</g>
</svg>
