<?xml version="1.0" encoding="utf-8"?>
<!-- Generator: Adobe Illustrator 23.0.6, SVG Export Plug-In . SVG Version: 6.00 Build 0)  -->
<svg version="1.1" id="Layer_1" xmlns="http://www.w3.org/2000/svg" xmlns:xlink="http://www.w3.org/1999/xlink" x="0px" y="0px"
	 viewBox="0 0 91 91" style="enable-background:new 0 0 91 91;" xml:space="preserve">
<style type="text/css">
	.st0{fill:#0000FF;}
	.st1{fill:#FFFFFF;}
</style>
<g>
	<circle class="st0" cx="45.5" cy="45.5" r="43"/>
	<path d="M45.5,5C67.8,5,86,23.2,86,45.5S67.8,86,45.5,86S5,67.8,5,45.5S23.2,5,45.5,5 M45.5,0C20.4,0,0,20.4,0,45.5
		S20.4,91,45.5,91S91,70.6,91,45.5S70.6,0,45.5,0L45.5,0z"/>
</g>
<g>
	<path class="st1" d="M45.1,73.5c-0.1,0-0.2-0.1-0.2-0.2V16.7c0-0.1,0.1-0.2,0.2-0.2s0.2,0.1,0.2,0.2v56.5
		C45.3,73.4,45.2,73.5,45.1,73.5z"/>
	<path d="M45.1,14c-1.5,0-2.7,1.2-2.7,2.7v56.5c0,1.5,1.2,2.7,2.7,2.7s2.7-1.2,2.7-2.7V16.7C47.8,15.2,46.6,14,45.1,14L45.1,14z"/>
</g>
<g>
	<path class="st1" d="M17.7,45.2c-0.1,0-0.2-0.1-0.2-0.2s0.1-0.2,0.2-0.2h56.5c0.1,0,0.2,0.1,0.2,0.2s-0.1,0.2-0.2,0.2H17.7z"/>
	<path d="M74.3,42.3H17.7c-1.5,0-2.7,1.2-2.7,2.7s1.2,2.7,2.7,2.7h56.5c1.5,0,2.7-1.2,2.7-2.7S75.8,42.3,74.3,42.3L74.3,42.3z"/>
</g>
</svg>
