<?xml version="1.0" encoding="utf-8"?>
<!-- Generator: Adobe Illustrator 23.0.6, SVG Export Plug-In . SVG Version: 6.00 Build 0)  -->
<svg version="1.1" id="Layer_1" xmlns="http://www.w3.org/2000/svg" xmlns:xlink="http://www.w3.org/1999/xlink" x="0px" y="0px"
	 viewBox="0 0 94 94" style="enable-background:new 0 0 94 94;" xml:space="preserve">
<style type="text/css">
	.st0{fill:#d0b85e; stroke: #d0b85e;}
</style>
<g>
	<path class="st0" d="M47.5,7C69.8,7,88,25.2,88,47.5S69.8,88,47.5,88S7,69.8,7,47.5S25.2,7,47.5,7 M47.5,2C22.4,2,2,22.4,2,47.5
		S22.4,93,47.5,93S93,72.6,93,47.5S72.6,2,47.5,2L47.5,2z"/>
</g>
<g>
	<path class="st0" d="M47.1,75.5c-0.1,0-0.2-0.1-0.2-0.2V18.7c0-0.1,0.1-0.2,0.2-0.2s0.2,0.1,0.2,0.2v56.5
		C47.3,75.4,47.2,75.5,47.1,75.5z"/>
	<path  class="st0" d="M47.1,16c-1.5,0-2.7,1.2-2.7,2.7v56.5c0,1.5,1.2,2.7,2.7,2.7s2.7-1.2,2.7-2.7V18.7C49.8,17.2,48.6,16,47.1,16L47.1,16z"/>
</g>
<g>
	<path class="st0" d="M19.7,47.2c-0.1,0-0.2-0.1-0.2-0.2s0.1-0.2,0.2-0.2h56.5c0.1,0,0.2,0.1,0.2,0.2s-0.1,0.2-0.2,0.2H19.7z"/>
	<path  class="st0" d="M76.3,44.3H19.7c-1.5,0-2.7,1.2-2.7,2.7s1.2,2.7,2.7,2.7h56.5c1.5,0,2.7-1.2,2.7-2.7S77.8,44.3,76.3,44.3L76.3,44.3z"/>
</g>
</svg>
