<?xml version="1.0" encoding="iso-8859-1"?>
<!-- Generator: Adobe Illustrator 19.0.0, SVG Export Plug-In . SVG Version: 6.00 Build 0)  -->
<svg version="1.1" id="Layer_1" xmlns="http://www.w3.org/2000/svg" xmlns:xlink="http://www.w3.org/1999/xlink" x="0px" y="0px"
	 viewBox="0 0 512 512" style="enable-background:new 0 0 512 512;" xml:space="preserve">
	 
<polygon style="fill:black;" points="107.488,508 107.488,414.48 205.128,414.48 204.44,166.888 107.488,166.888 107.488,96.776 
	202.744,4 306.888,4 306.888,414.48 404.512,414.48 404.512,508 "/>
<path style="fill:black;" d="M302.88,8v402.48v8h8h89.632V504H111.488v-85.52h89.632h8.024l-0.024-8.024l-0.672-239.584
	l-0.024-7.976h-7.976h-88.96V98.464L204.368,8L302.88,8 M310.88,0H201.12l-97.632,95.088v75.808h96.96l0.672,239.584h-97.632V512
	h305.024V410.48H310.88V0L310.88,0z"/>
<g>
</g>
<g>
</g>
<g>
</g>
<g>
</g>
<g>
</g>
<g>
</g>
<g>
</g>
<g>
</g>
<g>
</g>
<g>
</g>
<g>
</g>
<g>
</g>
<g>
</g>
<g>
</g>
<g>
</g>
</svg>
